<svg width="163" height="163" viewBox="0 0 163 163" fill="none" xmlns="http://www.w3.org/2000/svg">
<circle cx="81.5" cy="81.5" r="81.5" fill="#005A64"/>
<path d="M10 64.2811C10 64.2811 31 42.2811 53 45.2811C75 48.2811 73.5 74.2811 101 74.2811C128.5 74.2811 148 45.2811 148 45.2811" stroke="white" stroke-width="3" stroke-linecap="round"/>
<path d="M10 78.2811C10 78.2811 31 56.2811 53 59.2811C75 62.2811 73.5 88.2811 101 88.2811C128.5 88.2811 148 59.2811 148 59.2811" stroke="white" stroke-width="3" stroke-linecap="round"/>
<path d="M10 92.2811C10 92.2811 31 70.2811 53 73.2811C75 76.2811 73.5 102.281 101 102.281C128.5 102.281 148 73.2811 148 73.2811" stroke="white" stroke-width="3" stroke-linecap="round"/>
<path d="M10 106.281C10 106.281 31 84.2811 53 87.2811C75 90.2811 73.5 116.281 101 116.281C128.5 116.281 148 87.2811 148 87.2811" stroke="white" stroke-width="3" stroke-linecap="round"/>
</svg>
